<mxfile host="Electron" modified="2024-06-25T02:09:51.077Z" agent="Mozilla/5.0 (Windows NT 10.0; Win64; x64) AppleWebKit/537.36 (KHTML, like Gecko) draw.io/24.6.1 Chrome/124.0.6367.207 Electron/30.0.6 Safari/537.36" etag="WekeiGlb5_XL2QePAj-l" version="24.6.1" type="device">
  <diagram name="페이지-1" id="fXH3JviRdG-D-hOM04ia">
    <mxGraphModel dx="1687" dy="984" grid="1" gridSize="10" guides="1" tooltips="1" connect="1" arrows="1" fold="1" page="1" pageScale="1" pageWidth="827" pageHeight="1169" math="0" shadow="0">
      <root>
        <mxCell id="0" />
        <mxCell id="1" parent="0" />
        <mxCell id="73P63r-nSyk27EFvusmA-2" value="&lt;span style=&quot;color: rgb(13, 13, 13); font-family: &amp;quot;맑은 고딕&amp;quot;; font-size: 14px;&quot;&gt;executeEnhance()&lt;/span&gt;" style="ellipse;whiteSpace=wrap;html=1;" vertex="1" parent="1">
          <mxGeometry x="234" y="245" width="160" height="40" as="geometry" />
        </mxCell>
        <mxCell id="73P63r-nSyk27EFvusmA-4" style="edgeStyle=orthogonalEdgeStyle;rounded=0;orthogonalLoop=1;jettySize=auto;html=1;entryX=0.5;entryY=0;entryDx=0;entryDy=0;" edge="1" parent="1" source="73P63r-nSyk27EFvusmA-2" target="73P63r-nSyk27EFvusmA-8">
          <mxGeometry relative="1" as="geometry">
            <mxPoint x="314" y="325" as="targetPoint" />
          </mxGeometry>
        </mxCell>
        <mxCell id="73P63r-nSyk27EFvusmA-11" style="edgeStyle=orthogonalEdgeStyle;rounded=0;orthogonalLoop=1;jettySize=auto;html=1;entryX=0.5;entryY=0;entryDx=0;entryDy=0;" edge="1" parent="1" source="73P63r-nSyk27EFvusmA-8" target="73P63r-nSyk27EFvusmA-10">
          <mxGeometry relative="1" as="geometry" />
        </mxCell>
        <mxCell id="73P63r-nSyk27EFvusmA-8" value="&lt;span style=&quot;font-family: &amp;quot;맑은 고딕&amp;quot;; color: rgb(13, 13, 13);&quot;&gt;&lt;font style=&quot;font-size: 14px;&quot;&gt;valid()&lt;/font&gt;&lt;/span&gt;" style="rounded=0;whiteSpace=wrap;html=1;" vertex="1" parent="1">
          <mxGeometry x="234" y="325" width="160" height="40" as="geometry" />
        </mxCell>
        <mxCell id="73P63r-nSyk27EFvusmA-12" style="edgeStyle=orthogonalEdgeStyle;rounded=0;orthogonalLoop=1;jettySize=auto;html=1;exitX=0.5;exitY=1;exitDx=0;exitDy=0;entryX=0.5;entryY=0;entryDx=0;entryDy=0;" edge="1" parent="1" source="73P63r-nSyk27EFvusmA-10" target="73P63r-nSyk27EFvusmA-17">
          <mxGeometry relative="1" as="geometry">
            <mxPoint x="424" y="445" as="targetPoint" />
            <mxPoint x="394" y="442" as="sourcePoint" />
          </mxGeometry>
        </mxCell>
        <mxCell id="73P63r-nSyk27EFvusmA-13" value="No" style="edgeLabel;html=1;align=center;verticalAlign=middle;resizable=0;points=[];" vertex="1" connectable="0" parent="73P63r-nSyk27EFvusmA-12">
          <mxGeometry x="-0.3746" relative="1" as="geometry">
            <mxPoint x="-15" y="6" as="offset" />
          </mxGeometry>
        </mxCell>
        <mxCell id="73P63r-nSyk27EFvusmA-18" style="edgeStyle=orthogonalEdgeStyle;rounded=0;orthogonalLoop=1;jettySize=auto;html=1;entryX=1;entryY=0.5;entryDx=0;entryDy=0;" edge="1" parent="1" source="73P63r-nSyk27EFvusmA-10" target="73P63r-nSyk27EFvusmA-14">
          <mxGeometry relative="1" as="geometry">
            <mxPoint x="314" y="515" as="targetPoint" />
          </mxGeometry>
        </mxCell>
        <mxCell id="73P63r-nSyk27EFvusmA-19" value="Yes" style="edgeLabel;html=1;align=center;verticalAlign=middle;resizable=0;points=[];" vertex="1" connectable="0" parent="73P63r-nSyk27EFvusmA-18">
          <mxGeometry x="-0.1" y="-2" relative="1" as="geometry">
            <mxPoint x="2" y="-12" as="offset" />
          </mxGeometry>
        </mxCell>
        <mxCell id="73P63r-nSyk27EFvusmA-10" value="&lt;font style=&quot;font-size: 15px;&quot;&gt;isSuccess&lt;/font&gt;" style="rhombus;whiteSpace=wrap;html=1;" vertex="1" parent="1">
          <mxGeometry x="234" y="405" width="160" height="80" as="geometry" />
        </mxCell>
        <mxCell id="73P63r-nSyk27EFvusmA-16" style="edgeStyle=orthogonalEdgeStyle;rounded=0;orthogonalLoop=1;jettySize=auto;html=1;entryX=0.5;entryY=0;entryDx=0;entryDy=0;" edge="1" parent="1" source="73P63r-nSyk27EFvusmA-14" target="73P63r-nSyk27EFvusmA-15">
          <mxGeometry relative="1" as="geometry" />
        </mxCell>
        <mxCell id="73P63r-nSyk27EFvusmA-14" value="&lt;span style=&quot;font-family: &amp;quot;맑은 고딕&amp;quot;; color: rgb(13, 13, 13);&quot;&gt;&lt;font style=&quot;font-size: 14px;&quot;&gt;SuccessScenario()&lt;/font&gt;&lt;/span&gt;" style="rounded=0;whiteSpace=wrap;html=1;" vertex="1" parent="1">
          <mxGeometry x="74" y="425" width="120" height="40" as="geometry" />
        </mxCell>
        <mxCell id="73P63r-nSyk27EFvusmA-21" style="edgeStyle=orthogonalEdgeStyle;rounded=0;orthogonalLoop=1;jettySize=auto;html=1;entryX=0.5;entryY=0;entryDx=0;entryDy=0;" edge="1" parent="1" source="73P63r-nSyk27EFvusmA-15" target="73P63r-nSyk27EFvusmA-20">
          <mxGeometry relative="1" as="geometry">
            <mxPoint x="134" y="584.9999999999999" as="targetPoint" />
          </mxGeometry>
        </mxCell>
        <mxCell id="73P63r-nSyk27EFvusmA-15" value="&lt;span style=&quot;font-family: &amp;quot;맑은 고딕&amp;quot;; color: rgb(13, 13, 13);&quot;&gt;&lt;font style=&quot;font-size: 14px;&quot;&gt;ScrollDiscount()&lt;/font&gt;&lt;/span&gt;" style="rounded=0;whiteSpace=wrap;html=1;" vertex="1" parent="1">
          <mxGeometry x="74" y="505" width="120" height="40" as="geometry" />
        </mxCell>
        <mxCell id="73P63r-nSyk27EFvusmA-30" style="edgeStyle=orthogonalEdgeStyle;rounded=0;orthogonalLoop=1;jettySize=auto;html=1;entryX=0.5;entryY=0;entryDx=0;entryDy=0;exitX=0.5;exitY=1;exitDx=0;exitDy=0;" edge="1" parent="1" source="73P63r-nSyk27EFvusmA-17" target="73P63r-nSyk27EFvusmA-26">
          <mxGeometry relative="1" as="geometry" />
        </mxCell>
        <mxCell id="73P63r-nSyk27EFvusmA-31" value="No" style="edgeLabel;html=1;align=center;verticalAlign=middle;resizable=0;points=[];" vertex="1" connectable="0" parent="73P63r-nSyk27EFvusmA-30">
          <mxGeometry x="-0.7309" relative="1" as="geometry">
            <mxPoint x="-14" y="12" as="offset" />
          </mxGeometry>
        </mxCell>
        <mxCell id="73P63r-nSyk27EFvusmA-46" style="edgeStyle=orthogonalEdgeStyle;rounded=0;orthogonalLoop=1;jettySize=auto;html=1;entryX=0;entryY=0.5;entryDx=0;entryDy=0;" edge="1" parent="1" source="73P63r-nSyk27EFvusmA-17" target="73P63r-nSyk27EFvusmA-45">
          <mxGeometry relative="1" as="geometry" />
        </mxCell>
        <mxCell id="73P63r-nSyk27EFvusmA-47" value="Yes" style="edgeLabel;html=1;align=center;verticalAlign=middle;resizable=0;points=[];" vertex="1" connectable="0" parent="73P63r-nSyk27EFvusmA-46">
          <mxGeometry x="-0.0707" y="1" relative="1" as="geometry">
            <mxPoint y="-9" as="offset" />
          </mxGeometry>
        </mxCell>
        <mxCell id="73P63r-nSyk27EFvusmA-17" value="&lt;span style=&quot;font-size: 15px;&quot;&gt;isDestory&lt;/span&gt;" style="rhombus;whiteSpace=wrap;html=1;" vertex="1" parent="1">
          <mxGeometry x="234" y="525" width="160" height="80" as="geometry" />
        </mxCell>
        <mxCell id="73P63r-nSyk27EFvusmA-20" value="&lt;font face=&quot;맑은 고딕&quot; color=&quot;#0d0d0d&quot;&gt;&lt;span style=&quot;font-size: 14px;&quot;&gt;return()&lt;/span&gt;&lt;/font&gt;" style="ellipse;whiteSpace=wrap;html=1;" vertex="1" parent="1">
          <mxGeometry x="54" y="585" width="160" height="40" as="geometry" />
        </mxCell>
        <mxCell id="73P63r-nSyk27EFvusmA-25" style="edgeStyle=orthogonalEdgeStyle;rounded=0;orthogonalLoop=1;jettySize=auto;html=1;entryX=0.5;entryY=0;entryDx=0;entryDy=0;" edge="1" parent="1" source="73P63r-nSyk27EFvusmA-26" target="73P63r-nSyk27EFvusmA-28">
          <mxGeometry relative="1" as="geometry" />
        </mxCell>
        <mxCell id="73P63r-nSyk27EFvusmA-26" value="&lt;span style=&quot;font-family: &amp;quot;맑은 고딕&amp;quot;; color: rgb(13, 13, 13);&quot;&gt;&lt;font style=&quot;font-size: 14px;&quot;&gt;FailScenario()&lt;/font&gt;&lt;/span&gt;" style="rounded=0;whiteSpace=wrap;html=1;" vertex="1" parent="1">
          <mxGeometry x="254" y="645" width="120" height="40" as="geometry" />
        </mxCell>
        <mxCell id="73P63r-nSyk27EFvusmA-27" style="edgeStyle=orthogonalEdgeStyle;rounded=0;orthogonalLoop=1;jettySize=auto;html=1;entryX=0.5;entryY=0;entryDx=0;entryDy=0;" edge="1" parent="1" source="73P63r-nSyk27EFvusmA-28" target="73P63r-nSyk27EFvusmA-29">
          <mxGeometry relative="1" as="geometry" />
        </mxCell>
        <mxCell id="73P63r-nSyk27EFvusmA-28" value="&lt;span style=&quot;font-family: &amp;quot;맑은 고딕&amp;quot;; color: rgb(13, 13, 13);&quot;&gt;&lt;font style=&quot;font-size: 14px;&quot;&gt;ScrollDiscount()&lt;/font&gt;&lt;/span&gt;" style="rounded=0;whiteSpace=wrap;html=1;" vertex="1" parent="1">
          <mxGeometry x="254" y="725" width="120" height="40" as="geometry" />
        </mxCell>
        <mxCell id="73P63r-nSyk27EFvusmA-29" value="&lt;font face=&quot;맑은 고딕&quot; color=&quot;#0d0d0d&quot;&gt;&lt;span style=&quot;font-size: 14px;&quot;&gt;return()&lt;/span&gt;&lt;/font&gt;" style="ellipse;whiteSpace=wrap;html=1;" vertex="1" parent="1">
          <mxGeometry x="234" y="805" width="160" height="40" as="geometry" />
        </mxCell>
        <mxCell id="73P63r-nSyk27EFvusmA-49" style="edgeStyle=orthogonalEdgeStyle;rounded=0;orthogonalLoop=1;jettySize=auto;html=1;entryX=0.5;entryY=0;entryDx=0;entryDy=0;" edge="1" parent="1" source="73P63r-nSyk27EFvusmA-45" target="73P63r-nSyk27EFvusmA-48">
          <mxGeometry relative="1" as="geometry" />
        </mxCell>
        <mxCell id="73P63r-nSyk27EFvusmA-56" value="Yes" style="edgeLabel;html=1;align=center;verticalAlign=middle;resizable=0;points=[];" vertex="1" connectable="0" parent="73P63r-nSyk27EFvusmA-49">
          <mxGeometry x="-0.5946" y="1" relative="1" as="geometry">
            <mxPoint x="-12" y="-9" as="offset" />
          </mxGeometry>
        </mxCell>
        <mxCell id="73P63r-nSyk27EFvusmA-58" style="edgeStyle=orthogonalEdgeStyle;rounded=0;orthogonalLoop=1;jettySize=auto;html=1;entryX=0.5;entryY=0;entryDx=0;entryDy=0;" edge="1" parent="1" source="73P63r-nSyk27EFvusmA-45" target="73P63r-nSyk27EFvusmA-57">
          <mxGeometry relative="1" as="geometry" />
        </mxCell>
        <mxCell id="73P63r-nSyk27EFvusmA-59" value="No" style="edgeLabel;html=1;align=center;verticalAlign=middle;resizable=0;points=[];" vertex="1" connectable="0" parent="73P63r-nSyk27EFvusmA-58">
          <mxGeometry x="-0.0569" y="2" relative="1" as="geometry">
            <mxPoint x="-12" y="1" as="offset" />
          </mxGeometry>
        </mxCell>
        <mxCell id="73P63r-nSyk27EFvusmA-45" value="&lt;span style=&quot;font-size: 15px;&quot;&gt;hasProtectScroll&lt;/span&gt;" style="rhombus;whiteSpace=wrap;html=1;" vertex="1" parent="1">
          <mxGeometry x="434" y="525" width="160" height="80" as="geometry" />
        </mxCell>
        <mxCell id="73P63r-nSyk27EFvusmA-54" style="edgeStyle=orthogonalEdgeStyle;rounded=0;orthogonalLoop=1;jettySize=auto;html=1;entryX=0.5;entryY=0;entryDx=0;entryDy=0;" edge="1" parent="1" source="73P63r-nSyk27EFvusmA-48" target="73P63r-nSyk27EFvusmA-53">
          <mxGeometry relative="1" as="geometry" />
        </mxCell>
        <mxCell id="73P63r-nSyk27EFvusmA-48" value="&lt;span style=&quot;font-family: &amp;quot;맑은 고딕&amp;quot;; color: rgb(13, 13, 13);&quot;&gt;&lt;font style=&quot;font-size: 14px;&quot;&gt;FailScenario()&lt;/font&gt;&lt;/span&gt;" style="rounded=0;whiteSpace=wrap;html=1;" vertex="1" parent="1">
          <mxGeometry x="634" y="645" width="120" height="40" as="geometry" />
        </mxCell>
        <mxCell id="73P63r-nSyk27EFvusmA-50" style="edgeStyle=orthogonalEdgeStyle;rounded=0;orthogonalLoop=1;jettySize=auto;html=1;entryX=0.5;entryY=0;entryDx=0;entryDy=0;" edge="1" parent="1" source="73P63r-nSyk27EFvusmA-51" target="73P63r-nSyk27EFvusmA-52">
          <mxGeometry relative="1" as="geometry" />
        </mxCell>
        <mxCell id="73P63r-nSyk27EFvusmA-51" value="&lt;span style=&quot;font-family: &amp;quot;맑은 고딕&amp;quot;; color: rgb(13, 13, 13);&quot;&gt;&lt;font style=&quot;font-size: 14px;&quot;&gt;ScrollDiscount()&lt;/font&gt;&lt;/span&gt;" style="rounded=0;whiteSpace=wrap;html=1;" vertex="1" parent="1">
          <mxGeometry x="634" y="805" width="120" height="40" as="geometry" />
        </mxCell>
        <mxCell id="73P63r-nSyk27EFvusmA-52" value="&lt;font face=&quot;맑은 고딕&quot; color=&quot;#0d0d0d&quot;&gt;&lt;span style=&quot;font-size: 14px;&quot;&gt;return()&lt;/span&gt;&lt;/font&gt;" style="ellipse;whiteSpace=wrap;html=1;" vertex="1" parent="1">
          <mxGeometry x="614" y="885" width="160" height="40" as="geometry" />
        </mxCell>
        <mxCell id="73P63r-nSyk27EFvusmA-55" style="edgeStyle=orthogonalEdgeStyle;rounded=0;orthogonalLoop=1;jettySize=auto;html=1;entryX=0.5;entryY=0;entryDx=0;entryDy=0;" edge="1" parent="1" source="73P63r-nSyk27EFvusmA-53" target="73P63r-nSyk27EFvusmA-51">
          <mxGeometry relative="1" as="geometry" />
        </mxCell>
        <mxCell id="73P63r-nSyk27EFvusmA-53" value="&lt;font face=&quot;맑은 고딕&quot; color=&quot;#0d0d0d&quot;&gt;&lt;span style=&quot;font-size: 14px;&quot;&gt;SendMessage(4)&lt;/span&gt;&lt;/font&gt;" style="rounded=0;whiteSpace=wrap;html=1;" vertex="1" parent="1">
          <mxGeometry x="634" y="725" width="120" height="40" as="geometry" />
        </mxCell>
        <mxCell id="73P63r-nSyk27EFvusmA-65" style="edgeStyle=orthogonalEdgeStyle;rounded=0;orthogonalLoop=1;jettySize=auto;html=1;entryX=0.5;entryY=0;entryDx=0;entryDy=0;" edge="1" parent="1" source="73P63r-nSyk27EFvusmA-57" target="73P63r-nSyk27EFvusmA-64">
          <mxGeometry relative="1" as="geometry" />
        </mxCell>
        <mxCell id="73P63r-nSyk27EFvusmA-57" value="&lt;font face=&quot;맑은 고딕&quot; color=&quot;#0d0d0d&quot;&gt;&lt;span style=&quot;font-size: 14px;&quot;&gt;enhanceItem()&lt;/span&gt;&lt;/font&gt;&lt;div&gt;&lt;font face=&quot;맑은 고딕&quot; color=&quot;#0d0d0d&quot;&gt;&lt;span style=&quot;font-size: 14px;&quot;&gt;.setAmount(0)&lt;/span&gt;&lt;/font&gt;&lt;/div&gt;" style="rounded=0;whiteSpace=wrap;html=1;" vertex="1" parent="1">
          <mxGeometry x="454" y="645" width="120" height="40" as="geometry" />
        </mxCell>
        <mxCell id="73P63r-nSyk27EFvusmA-60" style="edgeStyle=orthogonalEdgeStyle;rounded=0;orthogonalLoop=1;jettySize=auto;html=1;entryX=0.5;entryY=0;entryDx=0;entryDy=0;" edge="1" parent="1" source="73P63r-nSyk27EFvusmA-61" target="73P63r-nSyk27EFvusmA-62">
          <mxGeometry relative="1" as="geometry" />
        </mxCell>
        <mxCell id="73P63r-nSyk27EFvusmA-61" value="&lt;span style=&quot;font-family: &amp;quot;맑은 고딕&amp;quot;; color: rgb(13, 13, 13);&quot;&gt;&lt;font style=&quot;font-size: 14px;&quot;&gt;ScrollDiscount()&lt;/font&gt;&lt;/span&gt;" style="rounded=0;whiteSpace=wrap;html=1;" vertex="1" parent="1">
          <mxGeometry x="454" y="805" width="120" height="40" as="geometry" />
        </mxCell>
        <mxCell id="73P63r-nSyk27EFvusmA-62" value="&lt;font face=&quot;맑은 고딕&quot; color=&quot;#0d0d0d&quot;&gt;&lt;span style=&quot;font-size: 14px;&quot;&gt;return()&lt;/span&gt;&lt;/font&gt;" style="ellipse;whiteSpace=wrap;html=1;" vertex="1" parent="1">
          <mxGeometry x="434" y="885" width="160" height="40" as="geometry" />
        </mxCell>
        <mxCell id="73P63r-nSyk27EFvusmA-63" style="edgeStyle=orthogonalEdgeStyle;rounded=0;orthogonalLoop=1;jettySize=auto;html=1;entryX=0.5;entryY=0;entryDx=0;entryDy=0;" edge="1" parent="1" source="73P63r-nSyk27EFvusmA-64" target="73P63r-nSyk27EFvusmA-61">
          <mxGeometry relative="1" as="geometry" />
        </mxCell>
        <mxCell id="73P63r-nSyk27EFvusmA-64" value="&lt;font face=&quot;맑은 고딕&quot; color=&quot;#0d0d0d&quot;&gt;&lt;span style=&quot;font-size: 14px;&quot;&gt;SendMessage(3)&lt;/span&gt;&lt;/font&gt;" style="rounded=0;whiteSpace=wrap;html=1;" vertex="1" parent="1">
          <mxGeometry x="454" y="725" width="120" height="40" as="geometry" />
        </mxCell>
      </root>
    </mxGraphModel>
  </diagram>
</mxfile>
